# xmcd
# 
# Track frame offsets:
#     150
#     13816
#     25807
#     37471
#     48547
#     61576
#     73279
#     86827
#     97796
#     108136
#     120217
#     135379
#     147893
#     159509
#     171166
#     183391
#     194252
#     207805
#     228269
#     251209
#     262220
#     275583
#     287664
#     306239
# 
# Disc length: 4408
# 
# Revision: 3
# Processed by: cddbd v1.5.2PL0 Copyright (c) Steve Scherf et al.
# Submitted via: BonkEnc v1.0.8
# 
DISCID=5d113618
DTITLE=Various Artist - Dirty Laundry: The Soul Of Black Country
DYEAR=2004
DGENRE=Soul
TTITLE0=Ella Washington - He Called Me Baby
TTITLE1=Joe Simon - Chokin' Kind
TTITLE2=Bobby Powell - Your Cheating Heart
TTITLE3=Arthur Alexander - Love's Where Life Begins
TTITLE4=Candy Staton - Stand By Your Man
TTITLE5=Betty Lavette - What Condition My Condition Is In
TTITLE6=Roscoe Shelton - There's A Heartbreak Somewhere
TTITLE7=Stoney Edwards - She's My Rock
TTITLE8=Clarence Gatemouth Brown - Mama Mambo
TTITLE9=Earl Gaines - You Are My Sunshine
TTITLE10=Etta James - Almost Persuaded
TTITLE11=Bobby Womack - Bouquet Of Roses
TTITLE12=Johnny Adams - In A Moment Of Weakness
TTITLE13=Bettye Swann - Just Because You Can't Be Mine
TTITLE14=Freddie North - Don't Take Her She's All I Got
TTITLE15=Otis Williams - Shutters and Boards
TTITLE16=Bobby Jonz - Snap Your Fingers
TTITLE17=Andre Williams and 2 Star Tabernacle - Jet Black Daddy Lilly White Mama
TTITLE18=Pointer Sisters - Fairy Tale
TTITLE19=James and Bobby Purify - Sixteen Tons
TTITLE20=James Brown - Your Cheating Heart
TTITLE21=Willie Hobbs - Till I Get It Right
TTITLE22=Curtis Mayfield - Dirty Laundry
TTITLE23=Solomon Burke - I Can't Stop Loving You
EXTD=
EXTT0=
EXTT1=
EXTT2=
EXTT3=
EXTT4=
EXTT5=
EXTT6=
EXTT7=
EXTT8=
EXTT9=
EXTT10=
EXTT11=
EXTT12=
EXTT13=
EXTT14=
EXTT15=
EXTT16=
EXTT17=
EXTT18=
EXTT19=
EXTT20=
EXTT21=
EXTT22=
EXTT23=
PLAYORDER=
